<svg fill="none" xmlns="http://www.w3.org/2000/svg" viewBox="0 0 2395 745"><g filter="url(#filter0_d)"><mask id="a" maskUnits="userSpaceOnUse" x="64" y="57" width="592" height="592"><circle cx="360" cy="353" r="296" fill="#C4C4C4"/></mask><g mask="url(#a)"><circle cx="360" cy="353" r="296" fill="url(#paint0_linear)"/><g filter="url(#filter1_f)"><circle cx="224.58" cy="257.54" r="259.247" fill="#625FD8"/></g><g filter="url(#filter2_f)"><circle cx="463.107" cy="6.187" r="221.507" fill="#FF18B1"/></g><g filter="url(#filter3_f)"><circle cx="439.18" cy="755.807" r="225.207" fill="#000" fill-opacity=".3"/></g><g filter="url(#filter4_f)"><circle cx="379.487" cy="219.06" r="173.9" fill="#FBA9DF" fill-opacity=".5"/></g></g></g><path d="M829.92 543V134.2h245.28v76.16H921.76v91.84h146.72v76.16H921.76V543h-91.84zm320.72-337.12c-16.8 0-29.31-4.293-37.52-12.88-7.84-8.96-11.76-20.16-11.76-33.6 0-13.813 3.92-25.013 11.76-33.6 8.21-8.96 20.72-13.44 37.52-13.44 16.8 0 29.12 4.48 36.96 13.44 8.21 8.587 12.32 19.787 12.32 33.6 0 13.44-4.11 24.64-12.32 33.6-7.84 8.587-20.16 12.88-36.96 12.88zM1115.92 543V302.2h-40.88v-66.08h130.48V543h-89.6zm142.79 0V200.28h-36.4V134.2h126.56V543h-90.16zm278.56 3.92c-30.99 0-56-3.733-75.04-11.2-19.04-7.84-33.04-20.72-42-38.64-8.59-18.293-12.88-42.933-12.88-73.92V301.64h-46.48v-65.52h46.48v-82.88h83.44v82.88h89.6v65.52h-89.6v124.88c0 14.56 3.73 25.76 11.2 33.6 7.84 7.467 18.85 11.2 33.04 11.2h45.36v75.6h-43.12zm209.24 6.72c-26.13 0-49.28-4.48-69.44-13.44-19.79-8.96-36.4-20.907-49.84-35.84-13.44-15.307-23.52-32.293-30.24-50.96-6.72-19.04-10.08-38.453-10.08-58.24v-11.2c0-20.16 3.36-39.76 10.08-58.8 6.72-19.04 16.8-36.027 30.24-50.96 13.44-14.933 29.68-26.693 48.72-35.28 19.41-8.96 41.81-13.44 67.2-13.44 32.85 0 60.48 7.467 82.88 22.4 22.77 14.56 40.13 33.787 52.08 57.68 11.95 23.893 17.92 49.653 17.92 77.28v30.24h-224.56c2.99 20.907 10.45 37.52 22.4 49.84 12.32 11.947 29.87 17.92 52.64 17.92 16.05 0 29.31-2.987 39.76-8.96 10.83-6.347 18.11-14.373 21.84-24.08h82.32c-6.72 31.36-22.96 56.933-48.72 76.72-25.39 19.413-57.12 29.12-95.2 29.12zm-3.36-255.36c-19.41 0-35.28 5.6-47.6 16.8-11.95 10.827-19.6 26.507-22.96 47.04h137.76c-2.99-20.533-10.27-36.213-21.84-47.04-11.2-11.2-26.32-16.8-45.36-16.8zM1921.8 543V236.12h71.12v104.16c3.36-34.72 14-61.413 31.92-80.08 18.3-18.667 43.12-28 74.48-28h11.76v77.28h-22.4c-25.01 0-44.24 6.72-57.68 20.16-13.06 13.44-19.6 32.48-19.6 57.12V543h-89.6zm318.59 9.52c-43.68 0-77.84-8.96-102.48-26.88-24.64-17.92-37.71-43.12-39.2-75.6h79.52c1.12 9.707 6.9 18.48 17.36 26.32 10.45 7.467 25.94 11.2 46.48 11.2 15.3 0 28.18-2.613 38.64-7.84 10.45-5.227 15.68-13.067 15.68-23.52 0-8.96-3.92-16.053-11.76-21.28-7.84-5.6-21.84-9.52-42-11.76l-24.08-2.24c-36.96-4.107-64.78-14.373-83.44-30.8-18.3-16.427-27.44-37.893-27.44-64.4 0-21.653 5.41-39.76 16.24-54.32 11.2-14.56 26.32-25.573 45.36-33.04 19.04-7.467 40.88-11.2 65.52-11.2 39.57 0 71.3 8.773 95.2 26.32 24.26 17.173 37.14 42.187 38.64 75.04h-79.52c-1.5-9.707-6.91-18.107-16.24-25.2-8.96-7.093-22.03-10.64-39.2-10.64-13.82 0-24.83 2.613-33.04 7.84-8.22 5.227-12.32 12.32-12.32 21.28 0 8.587 3.54 15.12 10.64 19.6 7.09 4.48 18.66 7.653 34.72 9.52l24.08 2.24c37.33 4.107 66.45 14.747 87.36 31.92 21.28 16.8 31.92 39.2 31.92 67.2 0 30.987-12.32 55.44-36.96 73.36s-57.87 26.88-99.68 26.88z" fill="#220A43"/><defs><filter id="filter0_d" x="0" y="25" width="720" height="720" filterUnits="userSpaceOnUse" color-interpolation-filters="sRGB"><feFlood flood-opacity="0" result="BackgroundImageFix"/><feColorMatrix in="SourceAlpha" values="0 0 0 0 0 0 0 0 0 0 0 0 0 0 0 0 0 0 127 0"/><feOffset dy="32"/><feGaussianBlur stdDeviation="32"/><feColorMatrix values="0 0 0 0 0 0 0 0 0 0 0 0 0 0 0 0 0 0 0.08 0"/><feBlend in2="BackgroundImageFix" result="effect1_dropShadow"/><feBlend in="SourceGraphic" in2="effect1_dropShadow" result="shape"/></filter><filter id="filter1_f" x="-284.667" y="-251.707" width="1018.49" height="1018.49" filterUnits="userSpaceOnUse" color-interpolation-filters="sRGB"><feFlood flood-opacity="0" result="BackgroundImageFix"/><feBlend in="SourceGraphic" in2="BackgroundImageFix" result="shape"/><feGaussianBlur stdDeviation="125" result="effect1_foregroundBlur"/></filter><filter id="filter2_f" x="-8.4" y="-465.32" width="943.013" height="943.013" filterUnits="userSpaceOnUse" color-interpolation-filters="sRGB"><feFlood flood-opacity="0" result="BackgroundImageFix"/><feBlend in="SourceGraphic" in2="BackgroundImageFix" result="shape"/><feGaussianBlur stdDeviation="125" result="effect1_foregroundBlur"/></filter><filter id="filter3_f" x="-36.027" y="280.6" width="950.413" height="950.413" filterUnits="userSpaceOnUse" color-interpolation-filters="sRGB"><feFlood flood-opacity="0" result="BackgroundImageFix"/><feBlend in="SourceGraphic" in2="BackgroundImageFix" result="shape"/><feGaussianBlur stdDeviation="125" result="effect1_foregroundBlur"/></filter><filter id="filter4_f" x="-44.413" y="-204.84" width="847.8" height="847.8" filterUnits="userSpaceOnUse" color-interpolation-filters="sRGB"><feFlood flood-opacity="0" result="BackgroundImageFix"/><feBlend in="SourceGraphic" in2="BackgroundImageFix" result="shape"/><feGaussianBlur stdDeviation="125" result="effect1_foregroundBlur"/></filter><linearGradient id="paint0_linear" x1="470.013" y1="69.333" x2="360" y2="649" gradientUnits="userSpaceOnUse"><stop stop-color="#6369FF"/><stop offset="1" stop-color="#F578DA"/></linearGradient></defs></svg>